<svg width="144" height="19" viewBox="0 0 144 19" fill="none" xmlns="http://www.w3.org/2000/svg">
<path d="M32.806 14.3322H30.6449V5.55374C30.6449 4.94268 30.7642 4.4285 31.0026 4.01119C31.2461 3.58891 31.5864 3.27096 32.0235 3.05734C32.4657 2.83875 32.9898 2.72945 33.5959 2.72945C33.7946 2.72945 33.9859 2.74435 34.1697 2.77416C34.3535 2.799 34.5324 2.83129 34.7063 2.87104L34.6839 4.48811C34.5895 4.46327 34.4901 4.44589 34.3858 4.43595C34.2815 4.42601 34.1598 4.42105 34.0207 4.42105C33.7623 4.42105 33.5413 4.46576 33.3574 4.55518C33.1786 4.63964 33.042 4.76632 32.9476 4.93523C32.8532 5.10414 32.806 5.31031 32.806 5.55374V14.3322ZM34.4156 6.26913V7.78933H29.4452V6.26913H34.4156ZM35.1981 10.3826V10.2261C35.1981 9.63493 35.2825 9.09094 35.4514 8.59414C35.6204 8.09238 35.8663 7.65768 36.1892 7.29005C36.5121 6.92242 36.9095 6.63676 37.3815 6.43307C37.8535 6.22442 38.395 6.12009 39.006 6.12009C39.6171 6.12009 40.1611 6.22442 40.638 6.43307C41.1149 6.63676 41.5149 6.92242 41.8378 7.29005C42.1657 7.65768 42.4141 8.09238 42.583 8.59414C42.7519 9.09094 42.8363 9.63493 42.8363 10.2261V10.3826C42.8363 10.9688 42.7519 11.5128 42.583 12.0146C42.4141 12.5114 42.1657 12.9461 41.8378 13.3187C41.5149 13.6863 41.1174 13.972 40.6455 14.1757C40.1735 14.3793 39.632 14.4812 39.0209 14.4812C38.4099 14.4812 37.8659 14.3793 37.389 14.1757C36.917 13.972 36.5171 13.6863 36.1892 13.3187C35.8663 12.9461 35.6204 12.5114 35.4514 12.0146C35.2825 11.5128 35.1981 10.9688 35.1981 10.3826ZM37.3442 10.2261V10.3826C37.3442 10.7204 37.3741 11.0359 37.4337 11.329C37.4933 11.6221 37.5877 11.8805 37.7168 12.104C37.851 12.3226 38.0249 12.494 38.2385 12.6182C38.4521 12.7424 38.7129 12.8045 39.0209 12.8045C39.319 12.8045 39.5749 12.7424 39.7885 12.6182C40.0021 12.494 40.1735 12.3226 40.3027 12.104C40.4318 11.8805 40.5262 11.6221 40.5858 11.329C40.6504 11.0359 40.6827 10.7204 40.6827 10.3826V10.2261C40.6827 9.89824 40.6504 9.59022 40.5858 9.30208C40.5262 9.00897 40.4294 8.75063 40.2952 8.52708C40.1661 8.29855 39.9947 8.1197 39.781 7.99053C39.5674 7.86137 39.3091 7.79678 39.006 7.79678C38.703 7.79678 38.4447 7.86137 38.231 7.99053C38.0224 8.1197 37.851 8.29855 37.7168 8.52708C37.5877 8.75063 37.4933 9.00897 37.4337 9.30208C37.3741 9.59022 37.3442 9.89824 37.3442 10.2261ZM43.8125 10.3826V10.2261C43.8125 9.63493 43.897 9.09094 44.0659 8.59414C44.2348 8.09238 44.4807 7.65768 44.8037 7.29005C45.1266 6.92242 45.524 6.63676 45.996 6.43307C46.4679 6.22442 47.0094 6.12009 47.6205 6.12009C48.2316 6.12009 48.7756 6.22442 49.2525 6.43307C49.7294 6.63676 50.1293 6.92242 50.4522 7.29005C50.7801 7.65768 51.0285 8.09238 51.1974 8.59414C51.3664 9.09094 51.4508 9.63493 51.4508 10.2261V10.3826C51.4508 10.9688 51.3664 11.5128 51.1974 12.0146C51.0285 12.5114 50.7801 12.9461 50.4522 13.3187C50.1293 13.6863 49.7319 13.972 49.2599 14.1757C48.788 14.3793 48.2465 14.4812 47.6354 14.4812C47.0243 14.4812 46.4803 14.3793 46.0034 14.1757C45.5315 13.972 45.1315 13.6863 44.8037 13.3187C44.4807 12.9461 44.2348 12.5114 44.0659 12.0146C43.897 11.5128 43.8125 10.9688 43.8125 10.3826ZM45.9587 10.2261V10.3826C45.9587 10.7204 45.9885 11.0359 46.0481 11.329C46.1078 11.6221 46.2021 11.8805 46.3313 12.104C46.4654 12.3226 46.6393 12.494 46.8529 12.6182C47.0666 12.7424 47.3274 12.8045 47.6354 12.8045C47.9335 12.8045 48.1893 12.7424 48.403 12.6182C48.6166 12.494 48.788 12.3226 48.9171 12.104C49.0463 11.8805 49.1407 11.6221 49.2003 11.329C49.2649 11.0359 49.2972 10.7204 49.2972 10.3826V10.2261C49.2972 9.89824 49.2649 9.59022 49.2003 9.30208C49.1407 9.00897 49.0438 8.75063 48.9097 8.52708C48.7805 8.29855 48.6091 8.1197 48.3955 7.99053C48.1819 7.86137 47.9235 7.79678 47.6205 7.79678C47.3175 7.79678 47.0591 7.86137 46.8455 7.99053C46.6368 8.1197 46.4654 8.29855 46.3313 8.52708C46.2021 8.75063 46.1078 9.00897 46.0481 9.30208C45.9885 9.59022 45.9587 9.89824 45.9587 10.2261ZM57.5316 12.5735V2.88594H59.6927V14.3322H57.7477L57.5316 12.5735ZM52.4345 10.3975V10.241C52.4345 9.625 52.504 9.0661 52.6431 8.56434C52.7822 8.0576 52.9859 7.6229 53.2542 7.26024C53.5225 6.89758 53.8528 6.61689 54.2453 6.41817C54.6378 6.21945 55.0849 6.12009 55.5866 6.12009C56.0586 6.12009 56.4709 6.21945 56.8237 6.41817C57.1814 6.61689 57.4844 6.90006 57.7328 7.26769C57.9862 7.63036 58.1899 8.06009 58.3439 8.55688C58.4979 9.04871 58.6097 9.58774 58.6792 10.174V10.5167C58.6097 11.0781 58.4979 11.5998 58.3439 12.0817C58.1899 12.5636 57.9862 12.9858 57.7328 13.3485C57.4844 13.7062 57.1814 13.9844 56.8237 14.1831C56.466 14.3818 56.0487 14.4812 55.5717 14.4812C55.07 14.4812 54.6229 14.3793 54.2304 14.1757C53.8429 13.972 53.515 13.6863 53.2467 13.3187C52.9834 12.9511 52.7822 12.5188 52.6431 12.022C52.504 11.5252 52.4345 10.9837 52.4345 10.3975ZM54.5806 10.241V10.3975C54.5806 10.7304 54.6055 11.0409 54.6552 11.329C54.7098 11.6172 54.7967 11.873 54.916 12.0966C55.0402 12.3152 55.1991 12.4866 55.3929 12.6108C55.5916 12.73 55.8326 12.7896 56.1157 12.7896C56.4834 12.7896 56.7864 12.7076 57.0249 12.5437C57.2633 12.3748 57.4447 12.1438 57.5689 11.8507C57.698 11.5575 57.7726 11.2197 57.7924 10.8372V9.86098C57.7775 9.54799 57.7328 9.2673 57.6583 9.01891C57.5887 8.76554 57.4844 8.54943 57.3453 8.37058C57.2112 8.19174 57.0423 8.05263 56.8386 7.95327C56.6399 7.85392 56.4039 7.80424 56.1306 7.80424C55.8524 7.80424 55.614 7.86882 55.4153 7.99799C55.2165 8.12219 55.0551 8.29358 54.9309 8.51217C54.8116 8.73076 54.7222 8.9891 54.6626 9.28718C54.608 9.58029 54.5806 9.89824 54.5806 10.241ZM68.8809 14.4812C68.255 14.4812 67.6936 14.3818 67.1968 14.1831C66.7 13.9794 66.2777 13.6987 65.93 13.341C65.5872 12.9833 65.3239 12.5685 65.1401 12.0966C64.9562 11.6196 64.8643 11.1129 64.8643 10.5764V10.2783C64.8643 9.66723 64.9513 9.10833 65.1252 8.6016C65.299 8.09486 65.5474 7.6552 65.8704 7.2826C66.1982 6.91 66.5957 6.62434 67.0627 6.42562C67.5297 6.22194 68.0563 6.12009 68.6425 6.12009C69.2138 6.12009 69.7205 6.21448 70.1627 6.40327C70.6048 6.59205 70.9749 6.86032 71.273 7.20808C71.5761 7.55584 71.8046 7.97315 71.9586 8.46001C72.1126 8.9419 72.1896 9.47844 72.1896 10.0696V10.9639H65.7809V9.53309H70.0807V9.36915C70.0807 9.07107 70.0261 8.80528 69.9168 8.57179C69.8124 8.33332 69.6535 8.14454 69.4398 8.00544C69.2262 7.86634 68.953 7.79678 68.6201 7.79678C68.3369 7.79678 68.0935 7.85888 67.8898 7.98308C67.6861 8.10728 67.5197 8.28116 67.3906 8.50472C67.2664 8.72828 67.172 8.99158 67.1074 9.29463C67.0478 9.59271 67.018 9.92059 67.018 10.2783V10.5764C67.018 10.8993 67.0627 11.1974 67.1521 11.4706C67.2465 11.7438 67.3781 11.9798 67.547 12.1785C67.7209 12.3773 67.9296 12.5313 68.173 12.6406C68.4214 12.7499 68.7021 12.8045 69.0151 12.8045C69.4026 12.8045 69.7628 12.73 70.0956 12.5809C70.4334 12.4269 70.7241 12.1959 70.9675 11.8879L72.0108 13.0206C71.8419 13.264 71.6108 13.4975 71.3177 13.7211C71.0296 13.9447 70.6818 14.1285 70.2745 14.2725C69.8671 14.4116 69.4026 14.4812 68.8809 14.4812ZM75.1406 6.26913L76.4745 8.72083L77.8457 6.26913H80.1334L77.8531 10.2112L80.2377 14.3322H77.9425L76.4894 11.7389L75.0363 14.3322H72.7411L75.1257 10.2112L72.8454 6.26913H75.1406ZM83.3228 7.81914V17.4322H81.1767V6.26913H83.1664L83.3228 7.81914ZM88.4274 10.2112V10.3677C88.4274 10.9539 88.3579 11.4979 88.2188 11.9997C88.0846 12.5015 87.8859 12.9386 87.6226 13.3112C87.3593 13.6789 87.0314 13.967 86.639 14.1757C86.2515 14.3793 85.8043 14.4812 85.2976 14.4812C84.8058 14.4812 84.3785 14.3818 84.0159 14.1831C83.6532 13.9844 83.3477 13.7062 83.0993 13.3485C82.8559 12.9858 82.6596 12.566 82.5106 12.0891C82.3615 11.6122 82.2473 11.1005 82.1678 10.554V10.1442C82.2473 9.55793 82.3615 9.02139 82.5106 8.53453C82.6596 8.0427 82.8559 7.61794 83.0993 7.26024C83.3477 6.89758 83.6507 6.61689 84.0084 6.41817C84.3711 6.21945 84.7958 6.12009 85.2827 6.12009C85.7944 6.12009 86.244 6.21697 86.6315 6.41072C87.024 6.60447 87.3519 6.88268 87.6152 7.24534C87.8834 7.608 88.0846 8.04021 88.2188 8.54198C88.3579 9.04375 88.4274 9.60016 88.4274 10.2112ZM86.2738 10.3677V10.2112C86.2738 9.86843 86.244 9.55296 86.1844 9.26482C86.1297 8.97171 86.0403 8.71586 85.9161 8.49727C85.7969 8.27868 85.6379 8.10977 85.4392 7.99053C85.2455 7.86634 85.0095 7.80424 84.7313 7.80424C84.4382 7.80424 84.1873 7.85143 83.9786 7.94582C83.7749 8.04021 83.6085 8.17683 83.4793 8.35568C83.3502 8.53453 83.2533 8.74815 83.1887 8.99655C83.1241 9.24495 83.0844 9.52564 83.0695 9.83862V10.8744C83.0943 11.2421 83.1639 11.5724 83.2781 11.8656C83.3924 12.1537 83.5688 12.3822 83.8072 12.5511C84.0457 12.72 84.3587 12.8045 84.7462 12.8045C85.0293 12.8045 85.2678 12.7424 85.4616 12.6182C85.6553 12.489 85.8118 12.3127 85.931 12.0891C86.0552 11.8656 86.1422 11.6072 86.1918 11.3141C86.2465 11.021 86.2738 10.7055 86.2738 10.3677ZM92.0267 2.88594V14.3322H89.8731V2.88594H92.0267ZM93.4575 10.3826V10.2261C93.4575 9.63493 93.542 9.09094 93.7109 8.59414C93.8798 8.09238 94.1257 7.65768 94.4486 7.29005C94.7715 6.92242 95.169 6.63676 95.6409 6.43307C96.1129 6.22442 96.6544 6.12009 97.2655 6.12009C97.8765 6.12009 98.4205 6.22442 98.8974 6.43307C99.3744 6.63676 99.7743 6.92242 100.097 7.29005C100.425 7.65768 100.673 8.09238 100.842 8.59414C101.011 9.09094 101.096 9.63493 101.096 10.2261V10.3826C101.096 10.9688 101.011 11.5128 100.842 12.0146C100.673 12.5114 100.425 12.9461 100.097 13.3187C99.7743 13.6863 99.3768 13.972 98.9049 14.1757C98.4329 14.3793 97.8914 14.4812 97.2804 14.4812C96.6693 14.4812 96.1253 14.3793 95.6484 14.1757C95.1764 13.972 94.7765 13.6863 94.4486 13.3187C94.1257 12.9461 93.8798 12.5114 93.7109 12.0146C93.542 11.5128 93.4575 10.9688 93.4575 10.3826ZM95.6037 10.2261V10.3826C95.6037 10.7204 95.6335 11.0359 95.6931 11.329C95.7527 11.6221 95.8471 11.8805 95.9763 12.104C96.1104 12.3226 96.2843 12.494 96.4979 12.6182C96.7115 12.7424 96.9724 12.8045 97.2804 12.8045C97.5784 12.8045 97.8343 12.7424 98.0479 12.6182C98.2615 12.494 98.4329 12.3226 98.5621 12.104C98.6913 11.8805 98.7857 11.6221 98.8453 11.329C98.9099 11.0359 98.9422 10.7204 98.9422 10.3826V10.2261C98.9422 9.89824 98.9099 9.59022 98.8453 9.30208C98.7857 9.00897 98.6888 8.75063 98.5546 8.52708C98.4255 8.29855 98.2541 8.1197 98.0405 7.99053C97.8268 7.86137 97.5685 7.79678 97.2655 7.79678C96.9624 7.79678 96.7041 7.86137 96.4905 7.99053C96.2818 8.1197 96.1104 8.29855 95.9763 8.52708C95.8471 8.75063 95.7527 9.00897 95.6931 9.30208C95.6335 9.59022 95.6037 9.89824 95.6037 10.2261ZM104.561 8.02779V14.3322H102.415V6.26913H104.434L104.561 8.02779ZM106.99 6.21697L106.953 8.20664C106.849 8.19174 106.722 8.17932 106.573 8.16938C106.429 8.15448 106.297 8.14703 106.178 8.14703C105.875 8.14703 105.612 8.18677 105.388 8.26626C105.17 8.34078 104.986 8.45256 104.837 8.6016C104.693 8.75063 104.583 8.93197 104.509 9.14559C104.439 9.35921 104.399 9.60264 104.39 9.87588L103.957 9.74175C103.957 9.22011 104.009 8.7407 104.114 8.30352C104.218 7.86137 104.37 7.47635 104.568 7.14846C104.772 6.82058 105.02 6.56721 105.314 6.38836C105.607 6.20952 105.942 6.12009 106.32 6.12009C106.439 6.12009 106.561 6.13003 106.685 6.1499C106.809 6.1648 106.911 6.18716 106.99 6.21697ZM111.566 14.4812C110.94 14.4812 110.378 14.3818 109.882 14.1831C109.385 13.9794 108.963 13.6987 108.615 13.341C108.272 12.9833 108.009 12.5685 107.825 12.0966C107.641 11.6196 107.549 11.1129 107.549 10.5764V10.2783C107.549 9.66723 107.636 9.10833 107.81 8.6016C107.984 8.09486 108.232 7.6552 108.555 7.2826C108.883 6.91 109.281 6.62434 109.747 6.42562C110.214 6.22194 110.741 6.12009 111.327 6.12009C111.899 6.12009 112.405 6.21448 112.848 6.40327C113.29 6.59205 113.66 6.86032 113.958 7.20808C114.261 7.55584 114.489 7.97315 114.643 8.46001C114.797 8.9419 114.874 9.47844 114.874 10.0696V10.9639H108.466V9.53309H112.766V9.36915C112.766 9.07107 112.711 8.80528 112.602 8.57179C112.497 8.33332 112.338 8.14454 112.125 8.00544C111.911 7.86634 111.638 7.79678 111.305 7.79678C111.022 7.79678 110.778 7.85888 110.575 7.98308C110.371 8.10728 110.205 8.28116 110.075 8.50472C109.951 8.72828 109.857 8.99158 109.792 9.29463C109.733 9.59271 109.703 9.92059 109.703 10.2783V10.5764C109.703 10.8993 109.747 11.1974 109.837 11.4706C109.931 11.7438 110.063 11.9798 110.232 12.1785C110.406 12.3773 110.614 12.5313 110.858 12.6406C111.106 12.7499 111.387 12.8045 111.7 12.8045C112.087 12.8045 112.448 12.73 112.78 12.5809C113.118 12.4269 113.409 12.1959 113.652 11.8879L114.696 13.0206C114.527 13.264 114.296 13.4975 114.003 13.7211C113.714 13.9447 113.367 14.1285 112.959 14.2725C112.552 14.4116 112.087 14.4812 111.566 14.4812ZM118.243 8.02779V14.3322H116.097V6.26913H118.116L118.243 8.02779ZM120.672 6.21697L120.635 8.20664C120.53 8.19174 120.404 8.17932 120.255 8.16938C120.111 8.15448 119.979 8.14703 119.86 8.14703C119.557 8.14703 119.293 8.18677 119.07 8.26626C118.851 8.34078 118.667 8.45256 118.518 8.6016C118.374 8.75063 118.265 8.93197 118.191 9.14559C118.121 9.35921 118.081 9.60264 118.071 9.87588L117.639 9.74175C117.639 9.22011 117.691 8.7407 117.796 8.30352C117.9 7.86137 118.051 7.47635 118.25 7.14846C118.454 6.82058 118.702 6.56721 118.995 6.38836C119.288 6.20952 119.624 6.12009 120.001 6.12009C120.121 6.12009 120.242 6.13003 120.367 6.1499C120.491 6.1648 120.593 6.18716 120.672 6.21697Z" fill="#4D585E"/>
<path d="M11.7635 0.667969L21.2898 5.16797V14.168L11.7635 18.668L2.23724 14.168V5.16797L11.7635 0.667969Z" fill="#4D585E"/>
</svg>
